<?xml version="1.0" encoding="utf-8"?>
<!-- Generator: Adobe Illustrator 19.0.0, SVG Export Plug-In . SVG Version: 6.00 Build 0)  -->
<svg version="1.1" id="Layer_1" xmlns="http://www.w3.org/2000/svg" xmlns:xlink="http://www.w3.org/1999/xlink" x="0px" y="0px"
	 viewBox="0 0 275.1 70.9" style="enable-background:new 0 0 275.1 70.9;" xml:space="preserve">
<style type="text/css">
	.st0{fill:url(#SVGID_1_);}
	.st1{fill:#FFFFFF;}
</style>
<g id="XMLID_1_">
	
		<linearGradient id="SVGID_1_" gradientUnits="userSpaceOnUse" x1="-564" y1="35.4475" x2="-456.073" y2="35.4475" gradientTransform="matrix(-1 0 0 1 -456.073 0)">
		<stop  offset="0" style="stop-color:#F1ED35"/>
		<stop  offset="0.1398" style="stop-color:#F2E731"/>
		<stop  offset="0.3323" style="stop-color:#F5D528"/>
		<stop  offset="0.5554" style="stop-color:#F9B817"/>
		<stop  offset="0.7998" style="stop-color:#FF9001"/>
		<stop  offset="0.809" style="stop-color:#FF8E00"/>
		<stop  offset="0.8336" style="stop-color:#FF6E04;stop-opacity:0.9613"/>
		<stop  offset="0.869" style="stop-color:#FF4708;stop-opacity:0.9057"/>
		<stop  offset="0.904" style="stop-color:#FF280C;stop-opacity:0.8507"/>
		<stop  offset="0.938" style="stop-color:#FF120E;stop-opacity:0.7974"/>
		<stop  offset="0.9705" style="stop-color:#FF050F;stop-opacity:0.7463"/>
		<stop  offset="1" style="stop-color:#FF0010;stop-opacity:0.7"/>
	</linearGradient>
	<path class="st0" d="M70.9,4.2h-4.2V0l4.2,0V4.2z M78.3,0l-4.2,0v4.2h4.2V0z M70.9,7.4h-4.2v4.2h4.2V7.4z M78.3,7.4h-4.2v4.2h4.2
		V7.4z M56.1,14.8h-4.2V19h4.2V14.8z M63.5,22.2h-4.2v4.2h4.2V22.2z M63.5,14.8h-4.2V19h4.2V14.8z M56.1,7.4h-4.2v4.2h4.2V7.4z
		 M63.5,7.4h-4.2v4.2h4.2V7.4z M41.3,14.8H37V19h4.2V14.8z M26.4,14.8h-4.2V19h4.2V14.8z M48.7,14.8h-4.2V19h4.2V14.8z M41.3,7.4H37
		v4.2h4.2V7.4z M63.5,0l-4.2,0v4.2h4.2V0z M70.9,14.8h-4.2V19h4.2V14.8z M85.7,7.4h-4.2v4.2h4.2V7.4z M78.3,14.8h-4.2V19h4.2V14.8z
		 M70.9,22.2h-4.2v4.2h4.2V22.2z M85.7,14.8h-4.2V19h4.2V14.8z M78.3,22.2h-4.2v4.2h4.2V22.2z M56.1,29.6h-4.2v4.2h4.2V29.6z
		 M63.5,29.6h-4.2v4.2h4.2V29.6z M56.1,22.2h-4.2v4.2h4.2V22.2z M63.5,66.7h-4.2v4.2h4.2V66.7z M70.9,66.7h-4.2v4.2h4.2V66.7z
		 M56.1,66.7h-4.2v4.2h4.2V66.7z M48.7,59.3h-4.2v4.2h4.2V59.3z M70.9,29.6h-4.2v4.2h4.2V29.6z M70.9,59.4h-4.2v4.2h4.2V59.4z
		 M78.3,29.6h-4.2v4.2h4.2V29.6z M70.9,37h-4.2v4.2h4.2V37z M78.3,37h-4.2v4.2h4.2V37z M56.1,44.4h-4.2v4.2h4.2V44.4z M63.5,51.9
		h-4.2v4.2h4.2V51.9z M63.5,44.4h-4.2v4.2h4.2V44.4z M56.1,37h-4.2v4.2h4.2V37z M63.5,37h-4.2v4.2h4.2V37z M70.9,44.4h-4.2v4.2h4.2
		V44.4z M78.3,44.4h-4.2v4.2h4.2V44.4z M93.1,22.2h-4.2v4.2h4.2V22.2z M85.7,29.6h-4.2v4.2h4.2V29.6z M78.3,59.3h-4.2v4.2h4.2V59.3z
		 M93.1,29.6h-4.2v4.2h4.2V29.6z M85.7,22.2h-4.2v4.2h4.2V22.2z M100.5,29.6h-4.2v4.2h4.2V29.6z M107.9,29.6h-4.2v4.2h4.2V29.6z
		 M100.5,37h-4.2v4.2h4.2V37z M107.9,37h-4.2v4.2h4.2V37z M85.7,44.4h-4.2v4.2h4.2V44.4z M93.1,44.4h-4.2v4.2h4.2V44.4z M85.7,37
		h-4.2v4.2h4.2V37z M85.7,51.9h-4.2v4.2h4.2V51.9z M93.1,37h-4.2v4.2h4.2V37z M100.5,51.9h-4.2v4.2h4.2V51.9z M93.1,51.9h-4.2v4.2
		h4.2V51.9z M100.5,44.4h-4.2v4.2h4.2V44.4z M107.9,44.4h-4.2v4.2h4.2V44.4z M33.9,7.4h-4.2v4.2h4.2V7.4z M33.9,14.8h-4.2V19h4.2
		V14.8z M33.9,51.9h-4.2v4.2h4.2V51.9z M48.7,51.9h-4.2v4.2h4.2V51.9z M33.9,59.3h-4.2v4.2h4.2V59.3z M41.3,59.3H37v4.2h4.2V59.3z
		 M41.3,51.9H37v4.2h4.2V51.9z M26.4,51.9h-4.2v4.2h4.2V51.9z M0,29.6l0,4.2h4.2v-4.2H0z M11.6,29.6H7.4v4.2h4.2V29.6z M19,29.6
		h-4.2v4.2H19V29.6z M11.6,37H7.4v4.2h4.2V37z M19,37h-4.2v4.2H19V37z M48.7,44.4h-4.2v4.2h4.2V44.4z M4.2,37H0l0,4.2h4.2V37z
		 M41.3,44.4H37v4.2h4.2V44.4z M33.9,44.4h-4.2v4.2h4.2V44.4z M26.4,29.6h-4.2v4.2h4.2V29.6z M33.9,29.6h-4.2v4.2h4.2V29.6z
		 M41.3,29.6H37v4.2h4.2V29.6z M48.7,29.6h-4.2v4.2h4.2V29.6z M41.3,37H37v4.2h4.2V37z M48.7,37h-4.2v4.2h4.2V37z M26.4,44.4h-4.2
		v4.2h4.2V44.4z M19,44.4h-4.2v4.2H19V44.4z M26.4,37h-4.2v4.2h4.2V37z M33.9,37h-4.2v4.2h4.2V37z M11.6,44.4H7.4v4.2h4.2V44.4z
		 M4.2,44.4H0l0,4.2h4.2V44.4z M48.7,22.2h-4.2v4.2h4.2V22.2z M41.3,22.2H37v4.2h4.2V22.2z M33.9,22.2h-4.2v4.2h4.2V22.2z
		 M26.4,22.2h-4.2v4.2h4.2V22.2z M19,22.2h-4.2v4.2H19V22.2z M11.6,22.2H7.4v4.2h4.2V22.2z M19,51.9h-4.2v4.2H19V51.9z M11.6,51.9
		H7.4v4.2h4.2V51.9z M70.9,51.9h-4.2v4.2h4.2V51.9z M78.3,51.9h-4.2v4.2h4.2V51.9z M56.1,59.3h-4.2v4.2h4.2V59.3z M63.5,59.3h-4.2
		v4.2h4.2V59.3z M56.1,51.9h-4.2v4.2h4.2V51.9z"/>
	<g id="XMLID_3_">
		<path id="XMLID_4_" class="st1" d="M127.7,44.9c-0.5,0.4-1.2,0.7-1.9,0.9c-0.7,0.2-1.5,0.3-2.3,0.3c-1,0-1.9-0.2-2.6-0.5
			c-0.7-0.3-1.3-0.8-1.8-1.4s-0.8-1.4-1-2.2s-0.3-1.8-0.3-2.9c0-2.3,0.5-4,1.5-5.3c1-1.2,2.5-1.8,4.3-1.8c0.9,0,1.6,0.1,2.2,0.2
			c0.6,0.1,1.1,0.3,1.6,0.6l-0.6,1.9c-0.4-0.2-0.9-0.4-1.4-0.6c-0.5-0.1-1-0.2-1.6-0.2c-2.6,0-3.8,1.7-3.8,5.2c0,0.7,0.1,1.3,0.2,2
			c0.1,0.6,0.4,1.2,0.7,1.6c0.3,0.5,0.7,0.9,1.2,1.1c0.5,0.3,1.1,0.4,1.9,0.4c0.6,0,1.2-0.1,1.7-0.3c0.5-0.2,0.9-0.4,1.3-0.7
			L127.7,44.9z"/>
		<path id="XMLID_6_" class="st1" d="M133.6,42.4c0,0.6,0.1,1.1,0.3,1.3c0.2,0.3,0.5,0.4,0.9,0.4c0.2,0,0.5,0,0.8-0.1
			s0.6-0.1,0.9-0.2l0.2,1.7c-0.3,0.1-0.7,0.3-1.2,0.4c-0.5,0.1-1,0.1-1.3,0.1c-0.8,0-1.5-0.2-2-0.7c-0.5-0.5-0.8-1.2-0.8-2.3V26.9
			h2.2V42.4z"/>
		<path id="XMLID_8_" class="st1" d="M138.9,39c0-2.3,0.5-4,1.5-5.3c1-1.2,2.5-1.8,4.4-1.8c1,0,1.9,0.2,2.6,0.5
			c0.7,0.3,1.4,0.8,1.8,1.4c0.5,0.6,0.8,1.4,1.1,2.2s0.4,1.8,0.4,2.9c0,2.3-0.5,4-1.5,5.3c-1,1.2-2.5,1.8-4.4,1.8
			c-1,0-1.9-0.2-2.6-0.5c-0.7-0.3-1.4-0.8-1.8-1.4c-0.5-0.6-0.8-1.4-1.1-2.2S138.9,40.1,138.9,39z M141.1,39c0,0.7,0.1,1.3,0.2,2
			c0.1,0.6,0.3,1.2,0.6,1.6c0.3,0.5,0.7,0.8,1.1,1.1c0.5,0.3,1,0.4,1.7,0.4c2.4,0,3.7-1.7,3.7-5.2c0-0.7-0.1-1.4-0.2-2
			c-0.1-0.6-0.3-1.2-0.6-1.6c-0.3-0.5-0.7-0.8-1.1-1.1c-0.5-0.3-1-0.4-1.7-0.4C142.4,33.8,141.1,35.5,141.1,39z"/>
		<path id="XMLID_11_" class="st1" d="M156.6,32.3V40c0,0.7,0,1.3,0.1,1.8s0.2,1,0.4,1.3c0.2,0.4,0.5,0.6,0.8,0.8s0.8,0.3,1.3,0.3
			c0.5,0,0.9-0.1,1.3-0.2c0.4-0.2,0.7-0.4,1-0.6c0.3-0.3,0.6-0.6,0.8-0.9c0.2-0.4,0.4-0.7,0.6-1.1v-9h2.2v9.7c0,0.6,0,1.3,0.1,2
			s0.1,1.3,0.2,1.8h-1.5l-0.5-2.1h-0.1c-0.4,0.7-1,1.3-1.7,1.8c-0.7,0.5-1.6,0.7-2.7,0.7c-0.7,0-1.4-0.1-1.9-0.3
			c-0.5-0.2-1-0.5-1.4-0.9c-0.4-0.4-0.6-1-0.8-1.7c-0.2-0.7-0.3-1.7-0.3-2.8v-8.2H156.6z"/>
		<path id="XMLID_13_" class="st1" d="M180.1,41.1c0,0.9,0,1.8,0,2.5c0,0.7,0.1,1.5,0.2,2.2h-1.5l-0.5-1.9h-0.1
			c-0.4,0.6-0.9,1.2-1.6,1.6s-1.5,0.6-2.4,0.6c-1.8,0-3.1-0.6-4-1.7c-0.9-1.1-1.3-2.9-1.3-5.3c0-2.3,0.5-4.1,1.6-5.3
			c1.1-1.2,2.6-1.8,4.5-1.8c0.7,0,1.2,0,1.6,0.1c0.4,0.1,0.8,0.2,1.3,0.4v-5.6h2.2V41.1z M174.7,44.2c0.9,0,1.6-0.2,2.2-0.7
			c0.5-0.5,0.9-1.2,1.1-2.2v-6.7c-0.3-0.3-0.7-0.4-1.1-0.5c-0.4-0.1-1-0.2-1.6-0.2c-1.2,0-2.2,0.4-2.9,1.2c-0.7,0.8-1.1,2.1-1.1,3.9
			c0,0.7,0.1,1.4,0.2,2.1c0.1,0.6,0.3,1.2,0.6,1.6c0.3,0.4,0.6,0.8,1.1,1.1C173.5,44.1,174,44.2,174.7,44.2z"/>
		<path id="XMLID_16_" class="st1" d="M192.5,45.8v-7.7c0-1.1-0.2-1.9-0.5-2.4c-0.3-0.5-0.9-0.7-1.7-0.7c-0.6,0-1.1,0.2-1.6,0.6
			c-0.5,0.4-0.8,0.9-1,1.6v8.6h-3.5V26.9h3.5v6.9h0.1c0.4-0.6,1-1,1.6-1.4c0.6-0.3,1.4-0.5,2.4-0.5c0.7,0,1.3,0.1,1.8,0.3
			c0.5,0.2,1,0.5,1.3,0.9c0.4,0.4,0.6,1,0.8,1.7c0.2,0.7,0.3,1.6,0.3,2.6v8.4H192.5z"/>
		<path id="XMLID_18_" class="st1" d="M198.9,39c0-2.3,0.6-4,1.7-5.3c1.1-1.2,2.7-1.8,4.7-1.8c1.1,0,2,0.2,2.8,0.5
			c0.8,0.3,1.4,0.8,2,1.4c0.5,0.6,0.9,1.4,1.2,2.3c0.3,0.9,0.4,1.9,0.4,2.9c0,2.3-0.6,4-1.7,5.3c-1.1,1.2-2.7,1.8-4.7,1.8
			c-1.1,0-2-0.2-2.8-0.5c-0.8-0.3-1.5-0.8-2-1.4c-0.5-0.6-0.9-1.4-1.2-2.3C199,41,198.9,40.1,198.9,39z M202.5,39
			c0,0.6,0.1,1.1,0.2,1.6c0.1,0.5,0.3,0.9,0.5,1.3c0.2,0.4,0.5,0.7,0.9,0.9s0.8,0.3,1.3,0.3c0.9,0,1.6-0.3,2.1-1
			c0.4-0.7,0.7-1.7,0.7-3.2c0-1.2-0.2-2.2-0.6-3c-0.4-0.8-1.1-1.1-2.1-1.1c-0.9,0-1.5,0.3-2,1C202.7,36.5,202.5,37.5,202.5,39z"/>
		<path id="XMLID_21_" class="st1" d="M213.2,32.3h1.9v-2.5l3.5-1v3.5h3.3v3h-3.3v5.2c0,0.9,0.1,1.6,0.3,2c0.2,0.4,0.5,0.6,1.1,0.6
			c0.4,0,0.7,0,0.9-0.1c0.3-0.1,0.6-0.2,0.9-0.3l0.6,2.7c-0.5,0.2-1.1,0.4-1.7,0.6s-1.3,0.2-2,0.2c-1.2,0-2.2-0.3-2.7-1
			c-0.6-0.6-0.9-1.7-0.9-3.1v-6.8h-1.9V32.3z"/>
		<path id="XMLID_23_" class="st1" d="M230.1,42c0-0.4-0.2-0.6-0.5-0.9c-0.3-0.2-0.7-0.4-1.1-0.6c-0.5-0.2-0.9-0.4-1.5-0.6
			s-1-0.5-1.5-0.8c-0.5-0.3-0.8-0.8-1.1-1.3c-0.3-0.5-0.5-1.2-0.5-2c0-1.3,0.4-2.3,1.2-3.1c0.8-0.7,1.9-1.1,3.4-1.1
			c1,0,2,0.1,2.8,0.3c0.8,0.2,1.5,0.5,1.9,0.7l-0.8,2.5c-0.4-0.2-0.9-0.3-1.6-0.5c-0.6-0.2-1.3-0.3-1.9-0.3c-1,0-1.6,0.4-1.6,1.2
			c0,0.3,0.2,0.6,0.5,0.8c0.3,0.2,0.7,0.4,1.1,0.6c0.4,0.2,0.9,0.4,1.5,0.6s1,0.5,1.5,0.8s0.8,0.7,1.1,1.2s0.5,1.2,0.5,1.9
			c0,1.4-0.4,2.4-1.3,3.2s-2.2,1.2-3.9,1.2c-1,0-1.8-0.1-2.7-0.4c-0.8-0.2-1.5-0.5-2-0.9l1-2.6c0.4,0.2,1,0.5,1.6,0.7
			c0.7,0.2,1.4,0.3,2.1,0.3c0.5,0,0.9-0.1,1.3-0.3C230,42.8,230.1,42.5,230.1,42z"/>
		<path id="XMLID_25_" class="st1" d="M236.5,32.3h2.6l0.4,1.6h0.1c0.5-0.7,1-1.2,1.7-1.5c0.6-0.3,1.4-0.5,2.3-0.5
			c1.7,0,3,0.5,3.8,1.6c0.8,1.1,1.3,2.8,1.3,5.2c0,1.2-0.1,2.2-0.4,3.1c-0.3,0.9-0.7,1.7-1.2,2.4c-0.5,0.6-1.2,1.1-1.9,1.5
			c-0.8,0.3-1.6,0.5-2.6,0.5c-0.6,0-1,0-1.4-0.1c-0.4-0.1-0.7-0.2-1.1-0.4v5.5h-3.5V32.3z M242.5,34.8c-0.7,0-1.2,0.2-1.6,0.5
			c-0.4,0.3-0.7,0.9-0.9,1.5v5.6c0.3,0.2,0.5,0.4,0.8,0.5c0.3,0.1,0.7,0.2,1.2,0.2c1,0,1.8-0.4,2.3-1.1c0.5-0.7,0.8-1.9,0.8-3.5
			c0-1.2-0.2-2.1-0.6-2.8C244,35.2,243.4,34.8,242.5,34.8z"/>
		<path id="XMLID_28_" class="st1" d="M250.9,39c0-2.3,0.6-4,1.7-5.3c1.1-1.2,2.7-1.8,4.7-1.8c1.1,0,2,0.2,2.8,0.5
			c0.8,0.3,1.4,0.8,2,1.4c0.5,0.6,0.9,1.4,1.2,2.3c0.3,0.9,0.4,1.9,0.4,2.9c0,2.3-0.6,4-1.7,5.3c-1.1,1.2-2.7,1.8-4.7,1.8
			c-1.1,0-2-0.2-2.8-0.5s-1.5-0.8-2-1.4c-0.5-0.6-0.9-1.4-1.2-2.3C251.1,41,250.9,40.1,250.9,39z M254.6,39c0,0.6,0.1,1.1,0.2,1.6
			c0.1,0.5,0.3,0.9,0.5,1.3c0.2,0.4,0.5,0.7,0.9,0.9c0.4,0.2,0.8,0.3,1.3,0.3c0.9,0,1.6-0.3,2.1-1c0.4-0.7,0.7-1.7,0.7-3.2
			c0-1.2-0.2-2.2-0.6-3c-0.4-0.8-1.1-1.1-2.1-1.1c-0.9,0-1.5,0.3-2,1C254.8,36.5,254.6,37.5,254.6,39z"/>
		<path id="XMLID_31_" class="st1" d="M265.2,32.3h1.9v-2.5l3.5-1v3.5h3.3v3h-3.3v5.2c0,0.9,0.1,1.6,0.3,2c0.2,0.4,0.5,0.6,1.1,0.6
			c0.4,0,0.7,0,0.9-0.1c0.3-0.1,0.6-0.2,0.9-0.3l0.6,2.7c-0.5,0.2-1.1,0.4-1.7,0.6c-0.6,0.2-1.3,0.2-2,0.2c-1.2,0-2.2-0.3-2.7-1
			c-0.6-0.6-0.9-1.7-0.9-3.1v-6.8h-1.9V32.3z"/>
	</g>
</g>
</svg>
